# xmcd
#
# Track frame offsets: 
#        150
#        16611
#        32186
#        49490
#        64560
#        77556
#        96935
#        113072
#        131688
#        147643
#        168905
#        185471
#
# Disc length: 2667 seconds
#
# Revision: 1
# Processed by: cddbd v1.5.2PL0 Copyright (c) Steve Scherf et al.
# Submitted via: ExactAudioCopy v0.90b4
#
DISCID=9f0a690c
DTITLE=John Nemeth - Magic Touch
DYEAR=2007
DGENRE=Blues
TTITLE0=Blues Hit Big Town
TTITLE1=Blue Broadway
TTITLE2=Magic Touch
TTITLE3=My Future
TTITLE4=She's Looking Good
TTITLE5=She Did Not Show
TTITLE6=You're An Angel
TTITLE7=Sit and Cry The Blues
TTITLE8=You Were Wrong
TTITLE9=Let Me Hold You
TTITLE10=Up To No Good
TTITLE11=Come On
EXTD=
EXTT0=
EXTT1=
EXTT2=
EXTT3=
EXTT4=
EXTT5=
EXTT6=
EXTT7=
EXTT8=
EXTT9=
EXTT10=
EXTT11=
PLAYORDER=
